<svg height="140" id="Layer_1" version="1.1" width="140" xml:space="preserve" xmlns="http://www.w3.org/2000/svg"><style>.st26{fill:none;stroke:#33363a;stroke-width:3;stroke-linecap:round;stroke-linejoin:round;stroke-miterlimit:10}.st79{fill:#9165b7}.st161{fill:#a981d3}</style><path class="st161" d="M127.56 114.718c-1.458 3.752-7.123 10.788-11.082 13.793-3.58 2.712-6.115 3.752-9.465 3.912-2.755.136-3.897-.1-7.419-1.555-27.633-11.376-49.694-28.354-67.213-51.682-9.149-12.183-16.117-24.818-20.876-37.924-2.777-7.646-2.914-10.966-.633-14.879.987-1.647 5.178-5.735 8.227-8.015 5.078-3.773 7.42-5.169 9.289-5.561 1.28-.277 3.506-.062 4.923.449.688.237 1.749.788 2.36 1.18 3.738 2.477 14.15 15.781 17.553 22.422 1.947 3.794 2.599 6.603 1.988 8.688-.627 2.238-1.67 3.416-6.338 7.172-1.869 1.512-3.62 3.065-3.896 3.478-.708 1.022-1.281 3.025-1.281 4.44.024 3.283 2.15 9.236 4.943 13.815 2.165 3.557 6.043 8.116 9.88 11.615 4.507 4.126 8.483 6.935 12.969 9.156 5.768 2.869 9.291 3.596 11.868 2.397.649-.293 1.338-.687 1.553-.864.201-.178 1.714-2.025 3.371-4.069 3.187-4.01 3.911-4.656 6.096-5.404 2.775-.942 5.607-.688 8.463.767 2.169 1.121 6.89 4.048 9.94 6.17 4.011 2.811 12.598 9.806 13.756 11.199 2.049 2.518 2.398 5.744 1.024 9.3z"/><path class="st79" d="M126.535 105.42c-1.158-1.394-9.745-8.388-13.756-11.199-3.051-2.122-7.771-5.05-9.94-6.17-2.855-1.455-5.688-1.708-8.463-.767-.443.152-.824.3-1.18.472l-.061.076c-1.657 2.044-3.17 3.891-3.371 4.069-.214.176-.897.566-1.544.859-1.634 2.015-3.112 3.819-3.312 3.996-.215.177-.903.571-1.553.864-2.577 1.199-6.101.472-11.868-2.397-4.485-2.222-8.462-5.03-12.969-9.156-3.837-3.499-7.715-8.059-9.88-11.615-2.793-4.58-4.919-10.532-4.943-13.815 0-1.416.573-3.418 1.281-4.44.276-.412 2.027-1.966 3.896-3.478l.414-.335c.166-.399.35-.76.545-1.042.276-.412 2.027-1.966 3.896-3.478.285-.229.556-.449.814-.66a7.266 7.266 0 00.668-1.657c.61-2.085-.041-4.894-1.988-8.688-3.402-6.641-13.814-19.945-17.553-22.422-.611-.392-1.672-.943-2.36-1.18-1.417-.511-3.643-.726-4.923-.449-1.869.392-4.211 1.787-9.289 5.561a44.394 44.394 0 00-2.637 2.162 8.862 8.862 0 00-.734.997c-2.281 3.913-2.145 7.233.633 14.879 4.759 13.106 11.727 25.741 20.876 37.924 17.519 23.327 39.58 40.306 67.213 51.682 3.521 1.455 4.664 1.69 7.419 1.555 3.35-.16 5.885-1.2 9.465-3.912.15-.114.308-.245.463-.371 2.575-2.998 4.903-6.353 5.764-8.567 1.376-3.556 1.027-6.782-1.023-9.298z"/><path d="M54.118 8.689c1.189-1.083 2.023-1.236 6.141-1.106 2.146.074 5.308.324 7.027.526C75.976 9.195 83 11.29 90.702 15.048c7.586 3.708 12.436 7.216 18.854 13.599 6.015 6.028 9.347 10.598 12.884 17.688 4.929 9.887 7.735 21.643 8.213 34.587.176 4.415.052 5.399-.961 6.659-1.921 2.449-6.135 2.043-7.576-.705-.457-.91-.584-1.69-.732-5.225-.256-5.421-.637-8.93-1.389-13.119-2.983-16.422-10.869-29.542-23.452-38.952-10.483-7.871-21.326-11.707-35.524-12.54-4.801-.275-5.637-.453-6.722-1.285-2.023-1.593-2.121-5.324-.179-7.066z" fill="#dfc7ff"/><path class="st161" d="M84.239 41.188c-5.082-3.031-12.586-5.276-19.432-5.831-2.479-.199-3.839-.706-4.775-1.791-1.439-1.64-1.595-3.86-.377-5.702 1.313-2.043 3.332-2.373 9.373-1.464 15.333 2.247 27.214 9.36 34.996 20.916 4.373 6.507 7.098 14.153 8.036 22.351.325 3.003.325 8.48-.024 9.387-.332.857-1.396 2.02-2.303 2.497-.982.505-3.082.457-4.244-.152-1.945-.983-2.527-2.545-2.527-6.786 0-6.533-1.691-13.421-4.621-18.77-3.34-6.107-8.187-11.149-14.102-14.655z"/><path class="st79" d="M92.781 74.815c-1.495 1.365-4.244 1.416-5.919.127-1.207-.907-1.589-1.868-1.865-4.465-.332-3.456-.937-5.88-1.972-8.122-2.227-4.77-6.14-7.242-12.758-8.051-3.107-.376-4.043-.731-5.056-1.916-1.846-2.198-1.135-5.753 1.416-7.065.958-.477 1.363-.531 3.484-.404 1.314.077 3.261.303 4.301.53 4.975 1.058 8.785 2.95 12.049 6.003 4.195 3.962 6.495 8.756 7.504 15.644.683 4.489.404 6.258-1.184 7.719z"/><path class="st26" d="M61.019 17.04c14.198.833 25.041 4.669 35.524 12.54 12.583 9.41 20.469 22.53 23.452 38.953.752 4.189 1.133 7.698 1.389 13.119.148 3.534.275 4.314.732 5.225 1.441 2.748 5.655 3.154 7.576.705 1.013-1.26 1.137-2.244.961-6.659-.478-12.944-3.284-24.7-8.213-34.587-3.537-7.09-6.869-11.66-12.884-17.688-6.419-6.383-11.269-9.892-18.854-13.599C83 11.29 75.976 9.195 67.286 8.109c-1.72-.203-4.881-.453-7.027-.526-4.117-.13-4.951.023-6.141 1.106-1.942 1.742-1.844 5.473.179 7.065 1.085.833 1.921 1.01 6.722 1.286z"/><path class="st26" d="M102.962 74.613c0 4.241.582 5.803 2.527 6.786 1.162.609 3.262.657 4.244.152.907-.478 1.971-1.64 2.303-2.497.35-.907.35-6.384.024-9.387-.938-8.197-3.663-15.844-8.036-22.351C96.242 35.76 84.361 28.647 69.028 26.4c-6.041-.909-8.06-.58-9.373 1.464-1.218 1.842-1.062 4.062.377 5.702.937 1.084 2.296 1.591 4.775 1.791 6.846.554 14.35 2.8 19.432 5.831 5.915 3.506 10.762 8.548 14.102 14.656 2.93 5.348 4.621 12.236 4.621 18.769z"/><path class="st26" d="M74.413 45.45c-1.04-.228-2.986-.454-4.301-.53-2.121-.127-2.526-.073-3.484.404-2.551 1.312-3.262 4.868-1.416 7.065 1.013 1.185 1.948 1.54 5.056 1.916 6.618.809 10.531 3.281 12.758 8.051 1.035 2.242 1.64 4.666 1.972 8.122.276 2.597.658 3.558 1.865 4.465 1.675 1.289 4.424 1.238 5.919-.127 1.588-1.461 1.867-3.229 1.185-7.718-1.009-6.888-3.309-11.682-7.504-15.644-3.265-3.054-7.075-4.946-12.05-6.004z"/><path class="st26" d="M126.535 105.42c-1.158-1.394-9.745-8.388-13.756-11.199-3.051-2.122-7.771-5.05-9.94-6.17-2.855-1.455-5.688-1.708-8.463-.767-2.185.748-2.909 1.394-6.096 5.404-1.657 2.044-3.17 3.891-3.371 4.069a2.61 2.61 0 01-.234.163c-.294.186-.764.441-1.227.657l-.092.044c-2.577 1.199-6.101.472-11.868-2.397-4.485-2.222-8.462-5.03-12.969-9.156-3.837-3.499-7.715-8.059-9.88-11.615-2.793-4.58-4.919-10.532-4.943-13.815 0-1.416.573-3.418 1.281-4.44.031-.046.086-.111.152-.185.029-.032.067-.071.103-.108l.142-.145.182-.177.109-.103.287-.267-.003.002a66.786 66.786 0 012.925-2.495c4.668-3.756 5.711-4.934 6.338-7.172.61-2.085-.041-4.894-1.988-8.688-3.402-6.641-13.814-19.945-17.553-22.422-.611-.392-1.672-.943-2.36-1.18-1.417-.511-3.643-.726-4.923-.449-1.869.392-4.211 1.787-9.289 5.561-3.049 2.279-7.239 6.367-8.227 8.015-2.281 3.913-2.145 7.233.633 14.879 3.645 10.038 8.598 19.798 14.821 29.292l.105.156a163.826 163.826 0 005.949 8.476c10.149 13.514 21.835 24.884 35.233 34.282a153.19 153.19 0 002.838 1.957c.581.388 1.174.764 1.761 1.145.819.532 1.64 1.063 2.472 1.582.623.388 1.254.767 1.885 1.147.819.495 1.642.986 2.473 1.468a172.668 172.668 0 006.429 3.533c.905.471 1.821.932 2.739 1.389.618.308 1.233.618 1.857.919 1.029.496 2.071.978 3.116 1.457.531.243 1.056.494 1.591.732 1.589.709 3.192 1.401 4.819 2.071 3.521 1.455 4.664 1.69 7.419 1.555 3.35-.16 5.885-1.2 9.465-3.912 3.959-3.006 9.624-10.041 11.082-13.793 1.375-3.558 1.026-6.784-1.024-9.3z"/></svg>