<svg width="902" height="607" fill="none" xmlns="http://www.w3.org/2000/svg"><path d="M588.568 25.646c-44.009 48.32-130.211 172.423-122.955 282.285" stroke="url(#paint0_linear_0_225)"/><path d="M526.587 42.94c-44.009 48.319-77.3 164.793-70.044 274.655" stroke="url(#paint1_linear_0_225)"/><path d="M474.684 41.414c-19.149 67.138-34.77 241.595-34.77 296.526" stroke="url(#paint2_linear_0_225)"/><path d="M305.874 35.31c44.008 48.32 125.675 195.819 118.419 305.681" stroke="url(#paint3_linear_0_225)"/><path d="M367.855 35.31c44.008 48.32 72.765 205.483 65.508 315.345" stroke="url(#paint4_linear_0_225)"/><path d="M417.238 38.362c19.404 73.579 21.164 258.195 21.164 318.397" stroke="url(#paint5_linear_0_225)"/><ellipse cx="455.535" cy="439.155" rx="273.12" ry="167.845" fill="url(#paint6_radial_0_225)"/><ellipse cx="307.385" cy="23.103" rx="22.172" ry="22.379" fill="#251C31"/><ellipse cx="420.261" cy="23.103" rx="22.172" ry="22.379" fill="#251C31"/><ellipse cx="475.692" cy="23.103" rx="22.172" ry="22.379" fill="#251C31"/><ellipse cx="535.153" cy="23.103" rx="22.172" ry="22.379" fill="#251C31"/><ellipse cx="590.583" cy="23.103" rx="22.172" ry="22.379" fill="#251C31"/><ellipse cx="367.855" cy="23.103" rx="22.172" ry="22.379" fill="#251C31"/><ellipse cx="449.704" cy="386.552" rx="90.704" ry="91.552" fill="url(#paint7_linear_0_225)"/><g filter="url(#filter0_d_0_225)" fill-rule="evenodd" clip-rule="evenodd" fill="#fff"><path d="M480.472 437.528a4.073 4.073 0 01-5.697-1.068l-60.266-88.908a4.16 4.16 0 011.077-5.747 4.073 4.073 0 015.697 1.068l60.267 88.909a4.16 4.16 0 01-1.078 5.746z"/><path d="M477.244 438.052a3.982 3.982 0 01-4.037-3.928l-1.21-89.561a3.983 3.983 0 117.967-.11l1.209 89.561a3.985 3.985 0 01-3.929 4.038z"/><path d="M489.062 440.726a4.83 4.83 0 10-.13-9.66l-25.102.346a4.83 4.83 0 00-4.765 4.896 4.829 4.829 0 004.895 4.763l25.102-.345zm0-91a4.83 4.83 0 10-.13-9.66l-25.102.346a4.83 4.83 0 00-4.765 4.896 4.829 4.829 0 004.895 4.763l25.102-.345zm-60 92a4.83 4.83 0 10-.13-9.66l-25.102.346a4.83 4.83 0 00-4.765 4.896 4.829 4.829 0 004.895 4.763l25.102-.345z"/><path d="M418.026 440.819a4.588 4.588 0 004.535-4.637l-1-90.537a4.586 4.586 0 00-4.636-4.534 4.587 4.587 0 00-4.535 4.637l1 90.537a4.585 4.585 0 004.636 4.534z"/></g><path d="M887.391 441.698c0 18.655-12.269 36.521-34.682 52.852-22.403 16.324-54.852 31.045-94.994 43.416-80.279 24.741-191.213 40.051-313.77 40.051-122.556 0-233.491-15.31-313.769-40.051-40.143-12.371-72.592-27.092-94.994-43.416C12.768 478.219.5 460.353.5 441.698c0-18.654 12.268-36.521 34.682-52.852 22.402-16.323 54.851-31.044 94.994-43.416 80.278-24.741 191.213-40.051 313.769-40.051 122.557 0 233.491 15.31 313.77 40.051 40.142 12.372 72.591 27.093 94.994 43.416 22.413 16.331 34.682 34.198 34.682 52.852z" stroke="url(#paint8_linear_0_225)"/><path d="M832.968 441.698c0 18.686-10.654 36.555-30.076 52.874-19.419 16.316-47.548 31.032-82.352 43.401-69.602 24.735-165.79 40.044-272.06 40.044-106.269 0-202.457-15.309-272.06-40.044-34.803-12.369-62.932-27.085-82.351-43.401-19.422-16.319-30.076-34.188-30.076-52.874 0-18.685 10.654-36.555 30.076-52.873 19.419-16.316 47.548-31.033 82.351-43.401 69.603-24.736 165.791-40.045 272.06-40.045 106.27 0 202.458 15.309 272.06 40.045 34.804 12.368 62.933 27.085 82.352 43.401 19.422 16.318 30.076 34.188 30.076 52.873z" stroke="url(#paint9_linear_0_225)"/><path d="M808.78 441.698c0 18.705-9.701 36.578-27.361 52.889-17.66 16.312-43.243 31.025-74.897 43.391-63.306 24.732-150.796 40.039-247.459 40.039-96.664 0-184.154-15.307-247.46-40.039-31.654-12.366-57.237-27.079-74.897-43.391-17.66-16.311-27.361-34.184-27.361-52.889 0-18.704 9.701-36.577 27.361-52.889 17.66-16.311 43.243-31.024 74.897-43.391 63.306-24.731 150.796-40.039 247.46-40.039 96.663 0 184.153 15.308 247.459 40.039 31.654 12.367 57.237 27.08 74.897 43.391 17.66 16.312 27.361 34.185 27.361 52.889z" stroke="url(#paint10_linear_0_225)"/><path d="M602.177 371.509c0 76.927-68.765 139.37-153.697 139.37-84.931 0-153.696-62.443-153.696-139.37 0-76.928 68.765-139.371 153.696-139.371 84.932 0 153.697 62.443 153.697 139.371z" stroke="url(#paint11_linear_0_225)"/><path d="M596.13 407.621c0 22.772-16.455 43.491-43.284 58.546-26.813 15.046-63.889 24.367-104.869 24.367-40.981 0-78.057-9.321-104.87-24.367-26.829-15.055-43.284-35.774-43.284-58.546 0-22.773 16.455-43.492 43.284-58.547 26.813-15.045 63.889-24.367 104.87-24.367 40.98 0 78.056 9.322 104.869 24.367 26.829 15.055 43.284 35.774 43.284 58.547z" stroke="url(#paint12_linear_0_225)"/><path d="M859.765 395.158c0-1.579-1.68-3.076-4.256-4.003.595-3.09.331-5.549-.833-6.337a1.603 1.603 0 00-.925-.271v1.083a.84.84 0 01.471.127c.561.379.805 1.821.615 3.677-.046.457-.12.938-.211 1.429a17.267 17.267 0 00-2.621-.53 23.085 23.085 0 00-1.717-2.429c1.346-1.472 2.609-2.278 3.468-2.278v-1.084c-1.136 0-2.621.953-4.124 2.604-1.502-1.641-2.989-2.584-4.124-2.584v1.082c.855 0 2.122.803 3.468 2.265a22.592 22.592 0 00-1.705 2.424c-.884.107-1.762.285-2.625.535a16.974 16.974 0 01-.215-1.409c-.194-1.857.045-3.299.603-3.682a.8.8 0 01.474-.128v-1.082c-.346 0-.66.087-.932.271-1.16.788-1.42 3.241-.822 6.322-2.567.933-4.239 2.424-4.239 3.998 0 1.579 1.68 3.076 4.256 4.003-.595 3.09-.331 5.549.834 6.336a1.6 1.6 0 00.928.272c1.135 0 2.621-.952 4.124-2.604 1.502 1.642 2.988 2.584 4.124 2.584a1.62 1.62 0 00.932-.272c1.16-.786 1.42-3.24.822-6.32 2.559-.928 4.23-2.425 4.23-3.999zm-5.374-3.241c-.161.65-.347 1.29-.557 1.919a27.796 27.796 0 00-1.135-2.303c.586.102 1.152.228 1.692.384zm-1.89 5.175a26.765 26.765 0 01-.995 1.856c-1.239.129-2.484.13-3.723.005a26.72 26.72 0 01-1.857-3.78 27.234 27.234 0 011.85-3.794 18.218 18.218 0 013.721-.006 27.178 27.178 0 011.858 3.78c-.262.66-.548 1.306-.854 1.939zm1.333-.632c.222.651.413 1.302.569 1.934-.54.156-1.11.287-1.7.388.41-.751.787-1.526 1.131-2.322zm-4.185 5.185a19.536 19.536 0 01-1.148-1.556c.371.02.751.035 1.135.035.388 0 .772-.01 1.148-.035a18.796 18.796 0 01-1.135 1.556zm-3.072-2.863a16.27 16.27 0 01-1.692-.383 24.54 24.54 0 01.557-1.919c.169.387.347.777.541 1.166.194.388.392.768.594 1.136zm3.051-10.11c.383.466.767.986 1.147 1.555-.371-.02-.751-.035-1.135-.035-.388 0-.772.01-1.147.035.371-.569.755-1.089 1.135-1.555zm-3.055 2.862c-.409.75-.787 1.523-1.13 2.317a23.254 23.254 0 01-.57-1.934c.54-.151 1.11-.282 1.7-.383zm-3.735 6.082c-1.462-.733-2.407-1.695-2.407-2.458 0-.763.945-1.73 2.407-2.458.354-.18.742-.341 1.143-.491.236.952.545 1.943.928 2.959a25.895 25.895 0 00-.915 2.944 11.261 11.261 0 01-1.156-.496zm2.221 6.943c-.562-.378-.805-1.822-.616-3.677.046-.457.12-.939.211-1.429a17.35 17.35 0 002.621.53c.526.854 1.1 1.665 1.717 2.429-1.346 1.472-2.609 2.279-3.468 2.279a.865.865 0 01-.465-.131v-.001zm9.791-3.702c.194 1.856-.046 3.299-.604 3.683a.807.807 0 01-.474.126c-.855 0-2.122-.802-3.468-2.265.615-.76 1.185-1.57 1.706-2.423a16.702 16.702 0 002.624-.534c.096.49.169.961.216 1.413zm1.588-3.241c-.354.18-.742.341-1.143.491a25.992 25.992 0 00-.928-2.959c.38-1.01.684-1.996.915-2.944.394.144.781.309 1.161.496 1.461.733 2.406 1.695 2.406 2.458-.004.763-.949 1.73-2.411 2.458z" fill="url(#paint13_linear_0_225)"/><path d="M849.636 397.378c.5 0 .98-.234 1.334-.65.354-.417.553-.982.553-1.571s-.199-1.153-.553-1.57c-.354-.416-.834-.65-1.334-.65-.5 0-.98.234-1.334.65a2.434 2.434 0 00-.553 1.57c0 .589.199 1.154.553 1.571.354.416.834.65 1.334.65z" fill="url(#paint14_linear_0_225)"/><path d="M788.728 353.698h-10.294c-.775 0-1.404.74-1.404 1.652v12.117c0 .913.629 1.653 1.404 1.653h10.294c.775 0 1.404-.74 1.404-1.653V355.35c0-.912-.629-1.652-1.404-1.652zm-4.568 12.028c0 1.5-.749 2.185-1.839 2.185-.986 0-1.556-.599-1.849-1.325l1.003-.712c.193.402.369.743.793.743.403 0 .661-.186.661-.912v-4.926h1.231v4.947zm2.913 2.185c-1.144 0-1.884-.64-2.243-1.48l1.003-.681c.263.506.608.881 1.213.881.509 0 .837-.3.837-.716 0-.496-.333-.671-.898-.964l-.307-.155c-.889-.444-1.477-1.005-1.477-2.186 0-1.088.705-1.914 1.802-1.914.783 0 1.345.32 1.748 1.16l-.959.723c-.21-.444-.438-.619-.792-.619-.36 0-.588.268-.588.619 0 .434.228.61.757.881l.307.155c1.047.527 1.635 1.067 1.635 2.279 0 1.301-.871 2.017-2.038 2.017z" fill="url(#paint15_linear_0_225)"/><path d="M893.934 460.465c-.242 0-.487-.081-.7-.233l-2.227-1.632c-.332-.233-.17-.313-.061-.358.443-.192.534-.233 1.006-.568.051-.036.116-.022.166.018l1.711 1.257a.177.177 0 00.206 0l6.666-4.768a.285.285 0 00.101-.224v-9.535a.284.284 0 00-.105-.228l-6.662-4.764a.177.177 0 00-.206 0l-6.658 4.768a.278.278 0 00-.105.228v9.531c0 .09.04.179.105.219l1.826 1.306c.992.613 1.598-.107 1.598-.836v-9.41c0-.134.087-.237.195-.237h.845c.105 0 .195.103.195.237v9.414c0 1.637-.722 2.577-1.974 2.577-.387 0-.69 0-1.534-.519l-1.747-1.248c-.433-.309-.7-.886-.7-1.507v-9.531c0-.617.267-1.199.7-1.508l6.659-4.767a1.218 1.218 0 011.4 0l6.666 4.772c.433.309.7.886.7 1.507v9.531c0 .617-.267 1.194-.7 1.507l-6.666 4.768a1.204 1.204 0 01-.7.233zm5.381-9.397c0-1.785-.975-2.259-3.021-2.594-2.071-.34-2.281-.514-2.281-1.114 0-.496.177-1.158 1.711-1.158 1.368 0 1.873.367 2.082 1.512.018.107.098.187.188.187h.866a.172.172 0 00.141-.076.285.285 0 00.05-.183c-.133-1.972-1.191-2.889-3.327-2.889-1.902 0-3.035.993-3.035 2.661 0 1.807 1.129 2.308 2.952 2.531 2.183.264 2.353.662 2.353 1.195 0 .921-.599 1.314-2.003 1.314-1.765 0-2.151-.55-2.281-1.636-.014-.117-.094-.202-.191-.202h-.863c-.108 0-.191.108-.191.237 0 1.391.61 3.051 3.53 3.051 2.107-.005 3.32-1.038 3.32-2.836z" fill="url(#paint16_linear_0_225)"/><path fill-rule="evenodd" clip-rule="evenodd" d="M775.05 526.896c-1.695 0-3.059 1.675-3.059 3.726 0 1.247.505 2.354 1.28 3.03-.4.353-.724.81-.946 1.337a4.33 4.33 0 00-.334 1.694c0 1.248.505 2.355 1.28 3.031-.4.352-.724.81-.946 1.336a4.334 4.334 0 00-.334 1.694c0 2.051 1.364 3.726 3.059 3.726s3.059-1.675 3.059-3.726v-3.149c.536.525 1.211.814 1.909.814 1.696 0 3.059-1.675 3.059-3.726a4.295 4.295 0 00-.334-1.694 3.683 3.683 0 00-.946-1.337c.4-.352.724-.81.946-1.336a4.317 4.317 0 00.334-1.694c0-2.051-1.363-3.726-3.059-3.726h-4.968zm-1.909 3.726c0-1.298.86-2.337 1.909-2.337h1.909v4.673h-1.909c-1.049 0-1.909-1.04-1.909-2.336zm6.877 2.336h-1.909v-4.674h1.909c1.05 0 1.91 1.04 1.91 2.338 0 1.296-.86 2.336-1.91 2.336zm-6.877 3.725c0-1.297.861-2.337 1.91-2.337h1.909v4.674h-1.91c-1.05 0-1.909-1.04-1.909-2.337zm4.968 0c0-1.297.861-2.337 1.91-2.337s1.909 1.039 1.909 2.337c0 1.297-.86 2.337-1.909 2.337s-1.909-1.039-1.909-2.337h-.001zm-4.968 6.061c0-1.296.861-2.335 1.91-2.335h1.909v2.335c0 1.298-.859 2.337-1.909 2.337-1.049 0-1.91-1.039-1.91-2.337z" fill="url(#paint17_linear_0_225)"/><path d="M843.883 458.091h-9.149c-1.256 0-2.274 1.199-2.274 2.677v10.366c0 1.478 1.018 2.677 2.274 2.677h9.149c1.256 0 2.274-1.199 2.274-2.677v-10.366c0-1.478-1.018-2.677-2.274-2.677z" fill="url(#paint18_linear_0_225)"/><path d="M839.661 462.226l-1.709 3.321 1.828 3.525a.128.128 0 01.009.082c-.003.011-.009.014-.018.015l-.01-.001h-.013c-.007 0-.014 0-.023.002h-1.344c-.071-.003-.122-.015-.154-.076l-.367-.838c-.11-.249-.223-.496-.339-.741l-.052-.108a69.691 69.691 0 01-.409-.876h-.009c-.123.29-.25.579-.381.865l-.391.86c-.128.285-.26.568-.395.849-.021.057-.057.069-.107.071h-1.28l-.006.001-.018.002c-.01 0-.016-.002-.017-.02a.125.125 0 01.013-.076l1.774-3.428-1.728-3.44c-.018-.028-.021-.052-.009-.07a.072.072 0 01.025-.021.052.052 0 01.03-.006h1.296a.167.167 0 01.082.016.19.19 0 01.056.06c.11.288.232.577.367.865.134.287.27.571.409.855.137.278.264.563.381.854h.01c.12-.291.244-.579.372-.865.125-.281.254-.565.385-.849.131-.281.258-.564.382-.849a.179.179 0 01.037-.071.117.117 0 01.073-.016h1.204a.047.047 0 01.033.003c.01.005.019.015.025.026a.074.074 0 01.007.039.083.083 0 01-.014.035l-.005.005zm2.7 7.084h-.063a2.495 2.495 0 01-1.227-.302 2.11 2.11 0 01-.859-.914c-.203-.397-.307-.891-.312-1.483l-.001-.048a3.234 3.234 0 01.313-1.417 2.53 2.53 0 01.878-1.018l.032-.02c.398-.259.879-.389 1.442-.389h.025l.028.001.031.002.036.002.059.005.066.006.049.005v-2.13c0-.051.019-.076.055-.076h1.158a.055.055 0 01.022.002.052.052 0 01.019.014c.006.007.01.014.012.023a.074.074 0 01.002.026v6.392c0 .107.004.223.011.347l.017.28.009.162a.136.136 0 01-.013.064.108.108 0 01-.042.045c-.299.146-.61.255-.928.324a4.27 4.27 0 01-.819.097zm.497-1.341v-2.952a.8.8 0 00-.151-.033 1.711 1.711 0 00-.189-.011 1.255 1.255 0 00-.643.173 1.342 1.342 0 00-.482.498c-.122.209-.184.481-.189.818v.036c-.004.236.028.471.097.692.055.179.143.342.257.476a.965.965 0 00.386.271c.153.058.312.087.473.086.086 0 .165-.003.239-.011a.8.8 0 00.174-.034l.028-.009z" fill="#000"/><path d="M729.284 367.383c1.077-.728 2.151-1.462 3.232-2.182 1.025-.685 2.232-.054 2.465 1.278.134.77-.158 1.602-.748 2.007a602.449 602.449 0 01-5.825 3.954c-.604.403-1.225.329-1.775-.165-.558-.502-.734-1.194-.603-1.999.149-.613.492-1.023.958-1.33.772-.507 1.531-1.04 2.296-1.563" fill="url(#paint19_linear_0_225)"/><path d="M730.074 366.854c-1.074-.733-2.151-1.461-3.221-2.203-1.017-.703-1.156-2.249-.293-3.152.5-.522 1.258-.64 1.851-.241a590.677 590.677 0 015.822 3.961c.598.413.854 1.084.766 1.891-.09.82-.511 1.346-1.169 1.615-.526.154-.999.01-1.458-.312-.759-.533-1.531-1.04-2.298-1.559" fill="url(#paint20_linear_0_225)"/><path d="M720.283 366.335c-.69.461-1.379.921-2.068 1.384-.403.27-.801.55-1.206.816-.816.536-1.785.222-2.248-.722-.441-.901-.188-2.069.598-2.609 1.921-1.32 3.847-2.63 5.78-3.926.593-.397 1.208-.347 1.756.128.579.501.768 1.207.639 2.034-.081.2-.129.435-.25.592a3.359 3.359 0 01-.668.683c-.768.558-1.554 1.083-2.333 1.62" fill="url(#paint21_linear_0_225)"/><path d="M719.492 366.852l2.052 1.416c.401.275.806.542 1.204.821.802.564 1.056 1.709.592 2.653-.442.9-1.428 1.226-2.218.695a612.199 612.199 0 01-5.779-3.93c-.588-.405-.859-1.057-.784-1.854.08-.84.504-1.386 1.178-1.667.187-.018.384-.086.56-.042.287.072.579.176.836.339.795.505 1.574 1.043 2.359 1.569" fill="url(#paint22_linear_0_225)"/><path fill-rule="evenodd" clip-rule="evenodd" d="M127.993 427.248c-3.896 0-7.054 3.984-7.054 8.897 0 4.914 3.158 8.898 7.054 8.898 3.896 0 7.055-3.984 7.055-8.898 0-4.913-3.159-8.897-7.055-8.897zm.083 14.101c-2.274 0-4.116-2.328-4.116-5.204 0-2.875 1.842-5.203 4.116-5.203 1.111 0 2.04.517 2.752 1.356l-1.16 1.467v-.003c-.432-.521-.98-.788-1.592-.788-1.358 0-2.462 1.451-2.462 3.168s1.104 3.172 2.462 3.172c1.232 0 2.07-.892 2.243-2.115h-2.243v-2.029h3.871c.052.348.079.711.079 1.093 0 2.973-1.574 5.086-3.95 5.086z" fill="url(#paint23_linear_0_225)"/><path d="M31.456 497.113h1.904v.954h-1.108v.954h1.108v.953h-1.904v-2.861zm2.284 0h1.905v.83h-1.108v.165h1.108v1.908H33.74v-.871h1.108v-.166H33.74v-1.866zm2.286 0h1.904v.83h-1.108v.165h1.108v1.908h-1.904v-.871h1.108v-.166h-1.108v-1.866z" fill="url(#paint24_linear_0_225)"/><path fill-rule="evenodd" clip-rule="evenodd" d="M34.763 517.796l-5.054-1.651-1.49-14.86h13.102l-1.49 14.858-5.068 1.653zm-3.598-9.784l.139 1.822h5.37l-.18 2.363-1.728.55h-.002l-1.725-.548-.11-1.453h-1.556l.217 2.861 3.173 1.036 3.179-1.036.387-5.106.038-.489.28-3.69h-7.761l.141 1.823h5.922l-.141 1.867h-5.643z" fill="url(#paint25_linear_0_225)"/><path d="M188.968 332.986h11.085v13.708h-11.085v-13.708zm-.505 14.349h12.093v-14.99h-12.093v14.99zm7.921-9.648c0-.051.015-.076.061-.076h.791c.04 0 .06.019.06.076v5.055c0 .051-.01.077-.06.077h-.781c-.05 0-.065-.032-.065-.084v-5.048h-.006zm-.055-1.454c0-.173.054-.339.15-.462a.468.468 0 01.364-.191c.136 0 .267.069.363.191a.75.75 0 01.151.462.76.76 0 01-.03.261.664.664 0 01-.113.22.488.488 0 01-.176.14.385.385 0 01-.205.033.388.388 0 01-.2-.039.472.472 0 01-.169-.141.645.645 0 01-.108-.218.757.757 0 01-.026-.256h-.001zm-2.268 3.562c-.141-.713-.475-2.261-.599-3.01h-.01c-.106.749-.373 2.018-.585 3.01h1.194zm-1.401 1.038l-.398 1.922c-.01.051-.025.064-.075.064h-.74c-.051 0-.061-.019-.051-.096l1.431-6.369c.035-.174.052-.353.051-.532 0-.045.015-.064.04-.064h1.058c.036 0 .051.013.061.064l1.602 6.912c.01.051 0 .084-.04.084h-.837c-.04 0-.065-.013-.075-.055l-.414-1.929h-1.612l-.001-.001z" fill="url(#paint26_linear_0_225)"/><path fill-rule="evenodd" clip-rule="evenodd" d="M82.641 371.577c0-.337.112-.66.31-.898a.976.976 0 01.75-.372h10.553a.894.894 0 01.405.096c.13.063.246.157.344.275.099.118.177.258.23.412.053.154.08.32.08.487v12.661c0 .167-.026.333-.08.487a1.327 1.327 0 01-.23.413 1.07 1.07 0 01-.343.275.908.908 0 01-.406.097H83.7a.907.907 0 01-.405-.097 1.07 1.07 0 01-.344-.275 1.318 1.318 0 01-.23-.413 1.489 1.489 0 01-.08-.486v-12.662zm5.016 4.526h1.716v1.034c.248-.594.882-1.129 1.834-1.129 1.825 0 2.258 1.184 2.258 3.356v4.023h-1.848v-3.529c0-1.237-.247-1.935-.876-1.935-.873 0-1.236.753-1.236 1.935v3.529h-1.848v-7.284zm-3.168 7.189h1.848v-7.284H84.49v7.284zm2.112-9.66c.004.19-.024.378-.082.555a1.469 1.469 0 01-.256.473c-.11.136-.243.244-.389.317a1.016 1.016 0 01-.46.112c-.159 0-.316-.038-.461-.112a1.193 1.193 0 01-.389-.317 1.467 1.467 0 01-.256-.473 1.682 1.682 0 01-.083-.555 1.57 1.57 0 01.358-.988c.222-.26.52-.406.83-.406.311 0 .61.146.831.406.222.261.35.615.358.988z" fill="url(#paint27_linear_0_225)"/><path d="M141.854 506.73l1.49 2.438 7.541-2.438m-16.866 18.981l4.08-4.652-2.455-3.073m5.592-11.256l-2.18 2.291 3.667.159m-9.961-2.449l.781 1.872 4.317.313m-2.789 7.52l3.189-6.935-9.259-.586m6.441 7.96l3.012 3.773 3.322-3.797 1.03-7.074-4.047-.242-3.317 7.34z" fill="url(#paint28_linear_0_225)"/><defs><linearGradient id="paint0_linear_0_225" x1="526.875" y1="25.646" x2="526.875" y2="307.931" gradientUnits="userSpaceOnUse"><stop stop-color="#3D1768"/><stop offset="1" stop-color="#3D1768" stop-opacity="0"/></linearGradient><linearGradient id="paint1_linear_0_225" x1="491.067" y1="42.94" x2="491.067" y2="317.595" gradientUnits="userSpaceOnUse"><stop stop-color="#3D1768"/><stop offset="1" stop-color="#3D1768" stop-opacity="0"/></linearGradient><linearGradient id="paint2_linear_0_225" x1="449.236" y1="58.707" x2="449.236" y2="334.379" gradientUnits="userSpaceOnUse"><stop stop-color="#3D1768"/><stop offset="1" stop-color="#3D1768" stop-opacity="0"/></linearGradient><linearGradient id="paint3_linear_0_225" x1="370.125" y1="60.741" x2="370.125" y2="340.991" gradientUnits="userSpaceOnUse"><stop stop-color="#3D1768"/><stop offset="1" stop-color="#3D1768" stop-opacity="0"/></linearGradient><linearGradient id="paint4_linear_0_225" x1="404.562" y1="58.707" x2="404.562" y2="350.655" gradientUnits="userSpaceOnUse"><stop stop-color="#3D1768"/><stop offset="1" stop-color="#3D1768" stop-opacity="0"/></linearGradient><linearGradient id="paint5_linear_0_225" x1="440.418" y1="64.81" x2="440.418" y2="366.931" gradientUnits="userSpaceOnUse"><stop stop-color="#3D1768"/><stop offset="1" stop-color="#3D1768" stop-opacity="0"/></linearGradient><linearGradient id="paint7_linear_0_225" x1="449.704" y1="295" x2="449.704" y2="478.103" gradientUnits="userSpaceOnUse"><stop stop-color="#301080" stop-opacity=".6"/><stop offset="1" stop-color="#7840AD" stop-opacity=".36"/></linearGradient><linearGradient id="paint8_linear_0_225" x1="443.945" y1="304.879" x2="443.945" y2="578.517" gradientUnits="userSpaceOnUse"><stop stop-opacity="0"/><stop offset=".479" stop-color="#763CAC"/></linearGradient><linearGradient id="paint9_linear_0_225" x1="448.48" y1="304.879" x2="448.48" y2="578.517" gradientUnits="userSpaceOnUse"><stop stop-opacity="0"/><stop offset=".479" stop-color="#763CAC"/></linearGradient><linearGradient id="paint10_linear_0_225" x1="459.063" y1="304.879" x2="459.063" y2="578.517" gradientUnits="userSpaceOnUse"><stop stop-opacity="0"/><stop offset=".479" stop-color="#763CAC"/></linearGradient><linearGradient id="paint11_linear_0_225" x1="448.48" y1="231.638" x2="448.48" y2="511.379" gradientUnits="userSpaceOnUse"><stop offset=".198" stop-opacity="0"/><stop offset="1" stop-color="#763CAC"/></linearGradient><linearGradient id="paint12_linear_0_225" x1="447.977" y1="324.207" x2="447.977" y2="491.034" gradientUnits="userSpaceOnUse"><stop offset=".198" stop-opacity="0"/><stop offset="1" stop-color="#763CAC"/></linearGradient><linearGradient id="paint13_linear_0_225" x1="849.64" y1="384.542" x2="849.64" y2="405.769" gradientUnits="userSpaceOnUse"><stop stop-color="#693B93" stop-opacity=".53"/><stop offset="1" stop-color="#693B93"/></linearGradient><linearGradient id="paint14_linear_0_225" x1="849.636" y1="392.937" x2="849.636" y2="397.378" gradientUnits="userSpaceOnUse"><stop stop-color="#693B93" stop-opacity=".53"/><stop offset="1" stop-color="#693B93"/></linearGradient><linearGradient id="paint15_linear_0_225" x1="783.581" y1="353.698" x2="783.581" y2="369.12" gradientUnits="userSpaceOnUse"><stop stop-color="#693B93" stop-opacity=".53"/><stop offset="1" stop-color="#693B93"/></linearGradient><linearGradient id="paint16_linear_0_225" x1="893.937" y1="437.925" x2="893.937" y2="460.465" gradientUnits="userSpaceOnUse"><stop stop-color="#693B93" stop-opacity=".53"/><stop offset="1" stop-color="#693B93"/></linearGradient><linearGradient id="paint17_linear_0_225" x1="777.534" y1="526.896" x2="777.534" y2="546.47" gradientUnits="userSpaceOnUse"><stop stop-color="#693B93" stop-opacity=".53"/><stop offset="1" stop-color="#693B93"/></linearGradient><linearGradient id="paint18_linear_0_225" x1="839.309" y1="458.091" x2="839.309" y2="473.811" gradientUnits="userSpaceOnUse"><stop stop-color="#693B93" stop-opacity=".53"/><stop offset="1" stop-color="#693B93"/></linearGradient><linearGradient id="paint19_linear_0_225" x1="730.501" y1="364.922" x2="730.501" y2="372.7" gradientUnits="userSpaceOnUse"><stop stop-color="#693B93" stop-opacity=".53"/><stop offset="1" stop-color="#693B93"/></linearGradient><linearGradient id="paint20_linear_0_225" x1="730.504" y1="361.02" x2="730.504" y2="368.787" gradientUnits="userSpaceOnUse"><stop stop-color="#693B93" stop-opacity=".53"/><stop offset="1" stop-color="#693B93"/></linearGradient><linearGradient id="paint21_linear_0_225" x1="719.059" y1="361.011" x2="719.059" y2="368.796" gradientUnits="userSpaceOnUse"><stop stop-color="#693B93" stop-opacity=".53"/><stop offset="1" stop-color="#693B93"/></linearGradient><linearGradient id="paint22_linear_0_225" x1="719.059" y1="364.929" x2="719.059" y2="372.693" gradientUnits="userSpaceOnUse"><stop stop-color="#693B93" stop-opacity=".53"/><stop offset="1" stop-color="#693B93"/></linearGradient><linearGradient id="paint23_linear_0_225" x1="127.993" y1="427.248" x2="127.993" y2="445.043" gradientUnits="userSpaceOnUse"><stop stop-color="#693B93" stop-opacity=".53"/><stop offset="1" stop-color="#693B93"/></linearGradient><linearGradient id="paint24_linear_0_225" x1="34.693" y1="497.113" x2="34.693" y2="500.016" gradientUnits="userSpaceOnUse"><stop stop-color="#693B93" stop-opacity=".53"/><stop offset="1" stop-color="#693B93"/></linearGradient><linearGradient id="paint25_linear_0_225" x1="34.77" y1="501.285" x2="34.77" y2="517.796" gradientUnits="userSpaceOnUse"><stop stop-color="#693B93" stop-opacity=".53"/><stop offset="1" stop-color="#693B93"/></linearGradient><linearGradient id="paint26_linear_0_225" x1="194.51" y1="332.345" x2="194.51" y2="347.335" gradientUnits="userSpaceOnUse"><stop stop-color="#693B93" stop-opacity=".53"/><stop offset="1" stop-color="#693B93"/></linearGradient><linearGradient id="paint27_linear_0_225" x1="88.978" y1="370.307" x2="88.978" y2="385.51" gradientUnits="userSpaceOnUse"><stop stop-color="#693B93" stop-opacity=".53"/><stop offset="1" stop-color="#693B93"/></linearGradient><linearGradient id="paint28_linear_0_225" x1="139.943" y1="506.73" x2="139.943" y2="525.711" gradientUnits="userSpaceOnUse"><stop stop-color="#693B93" stop-opacity=".53"/><stop offset="1" stop-color="#693B93"/></linearGradient><radialGradient id="paint6_radial_0_225" cx="0" cy="0" r="1" gradientUnits="userSpaceOnUse" gradientTransform="matrix(0 167.845 -273.12 0 455.535 439.155)"><stop stop-color="#763CAC"/><stop offset="1" stop-color="#320F85" stop-opacity="0"/></radialGradient><filter id="filter0_d_0_225" x="385.065" y="327.066" width="122.763" height="130.006" filterUnits="userSpaceOnUse" color-interpolation-filters="sRGB"><feFlood flood-opacity="0" result="BackgroundImageFix"/><feColorMatrix in="SourceAlpha" values="0 0 0 0 0 0 0 0 0 0 0 0 0 0 0 0 0 0 127 0" result="hardAlpha"/><feOffset dy="1"/><feGaussianBlur stdDeviation="7"/><feComposite in2="hardAlpha" operator="out"/><feColorMatrix values="0 0 0 0 1 0 0 0 0 1 0 0 0 0 1 0 0 0 0.55 0"/><feBlend in2="BackgroundImageFix" result="effect1_dropShadow_0_225"/><feBlend in="SourceGraphic" in2="effect1_dropShadow_0_225" result="shape"/></filter></defs></svg>