<?xml version="1.0" encoding="utf-8"?><svg viewBox="0 0 174.667 174.667" xmlns="http://www.w3.org/2000/svg" xmlns:xlink="http://www.w3.org/1999/xlink"><style>:root>svg{display:none}:root>svg:target{display:block}</style><svg fill="none" viewBox="0 0 120 94" id="icoworks" xmlns="http://www.w3.org/2000/svg"><path fill="#F5F5F5" d="M0 0h120v94H0z"/><g clip-path="url(#aa)"><path fill="#fff" d="M-524-1304h1980v4400H-524z"/><path d="M-534-1202h1990v4298H-534v-4298Z" fill="#11071F"/><g filter="url(#ab)"><rect x="-59" y="-52.962" width="570" height="192.676" rx="15" fill="#2C1250"/></g><path d="M95.24 68.176H75.614c-.502 0-.913-.465-.913-1.032 0-.571.411-1.032.913-1.032h18.713V15.854H77.573c-.505 0-.913-.46-.913-1.031s.408-1.032.913-1.032H95.24c.505 0 .912.46.912 1.031v52.322c0 .567-.407 1.032-.912 1.032Z" fill="#fff"/><path d="M86.527 68.176c-.454 0-.825-.465-.825-1.032V14.822c0-.57.371-1.031.825-1.031.456 0 .825.46.825 1.031v52.322c0 .567-.369 1.032-.825 1.032ZM76.078 58.8c-.225 0-.444-.123-.6-.33-.312-.42-.3-1.087.028-1.49a.803.803 0 0 1 .317-.238c1.306-.596 2.186-2.188 2.186-3.965 0-1.651-.756-3.155-1.926-3.828a.823.823 0 0 1-.252-.21c-.328-.404-.34-1.066-.027-1.487.18-.249.452-.368.715-.319.107.018.21.067.304.137 1.72 1.03 2.829 3.26 2.829 5.707 0 2.65-1.301 5.027-3.243 5.928a.675.675 0 0 1-.331.094ZM34.562 2.105c-2.033 0-3.686 1.87-3.686 4.17v10.238l2.301 59.36c.088 2.235 1.705 3.988 3.683 3.988h27.831c1.979 0 3.595-1.753 3.683-3.988l2.301-59.405V6.276c0-2.301-1.653-4.171-3.686-4.171H34.562Zm30.13 79.823H36.86c-2.958 0-5.375-2.621-5.506-5.966L29.05 16.557V6.276c0-3.441 2.471-6.238 5.512-6.238h32.427c3.04 0 5.512 2.797 5.512 6.238v10.236l-2.304 59.45c-.128 3.345-2.547 5.966-5.506 5.966Z" fill="#fff"/><path d="M63.893 17.54H29.958c-.503 0-.908-.418-.908-.937 0-.516.405-.937.908-.937h33.935c.5 0 .908.421.908.937 0 .52-.408.938-.908.938ZM39.753 24.562c-1.254 0-2.276 1.127-2.276 2.518v11.553c0 1.39 1.022 2.518 2.276 2.518h21.495c1.254 0 2.277-1.128 2.277-2.518V27.08c0-1.39-1.023-2.518-2.277-2.518H39.753ZM61.248 43.17H39.753c-2.261 0-4.103-2.033-4.103-4.538V27.08c0-2.505 1.842-4.538 4.103-4.538h21.495c2.262 0 4.103 2.033 4.103 4.538v11.553c0 2.505-1.841 4.538-4.103 4.538ZM45.706 53.798h-5.81a.955.955 0 0 1-.946-.964V49.76c0-.533.426-.963.945-.963.523 0 .945.43.945.963v2.11h4.866c.523 0 .945.431.945.965a.953.953 0 0 1-.945.963ZM61.107 53.798h-5.811a.953.953 0 0 1-.945-.964V49.76c0-.533.422-.963.945-.963.52 0 .945.43.945.963v2.11h4.866c.523 0 .945.431.945.965a.953.953 0 0 1-.945.963ZM45.706 64.426h-5.81c-.52 0-.946-.485-.946-1.085v-3.457c0-.6.426-1.085.945-1.085.523 0 .945.485.945 1.085v2.372h4.866c.523 0 .945.488.945 1.085 0 .6-.422 1.085-.945 1.085ZM61.107 64.426h-5.811c-.523 0-.945-.485-.945-1.085v-3.457c0-.6.422-1.085.945-1.085.52 0 .945.485.945 1.085v2.372h4.866c.523 0 .945.488.945 1.085 0 .6-.422 1.085-.945 1.085ZM45.706 74.427h-5.81a.957.957 0 0 1-.946-.964V70.39c0-.533.426-.964.945-.964.523 0 .945.43.945.964v2.11h4.866c.523 0 .945.43.945.964 0 .53-.422.964-.945.964ZM61.107 74.427h-5.811a.955.955 0 0 1-.945-.964V70.39c0-.533.422-.964.945-.964.52 0 .945.43.945.964v2.11h4.866c.523 0 .945.43.945.964 0 .53-.422.964-.945.964ZM25.87 69.426c-.521 0-.955-.43-.978-.983l-1.891-45.45c-.023-.57.394-1.051.936-1.075.551-.024.994.416 1.017.983L26.85 68.35c.023.57-.394 1.052-.936 1.076h-.042Z" fill="#fff"/><ellipse cx="55.669" cy="21.038" rx="55.669" ry="21.038" transform="matrix(-.9985 .05478 -.06553 -.99785 113.929 87.901)" fill="url(#ac)"/><ellipse cx="3.99" cy="61.952" rx="2.417" ry="2.209" fill="#D9D9D9"/><ellipse cx="117.571" cy="39.549" rx="2.417" ry="2.209" fill="#D9D9D9"/><ellipse cx="19.871" cy="4.209" rx="2.417" ry="2.209" fill="#693B93"/><ellipse cx="93.404" cy="84.986" rx="2.417" ry="2.209" fill="#693B93"/></g><defs><linearGradient id="ac" x1="55.669" y1="0" x2="55.669" y2="42.076" gradientUnits="userSpaceOnUse"><stop stop-color="#2C1250"/><stop offset=".198" stop-color="#2C1250"/><stop offset=".901" stop-color="#2C1250" stop-opacity="0"/></linearGradient><clipPath id="aa"><path fill="#fff" transform="translate(-524 -1304)" d="M0 0h1980v4400H0z"/></clipPath><filter id="ab" x="-81" y="-71.962" width="622" height="244.676" filterUnits="userSpaceOnUse" color-interpolation-filters="sRGB"><feFlood flood-opacity="0" result="BackgroundImageFix"/><feColorMatrix in="SourceAlpha" values="0 0 0 0 0 0 0 0 0 0 0 0 0 0 0 0 0 0 127 0" result="hardAlpha"/><feOffset dx="4" dy="7"/><feGaussianBlur stdDeviation="13"/><feComposite in2="hardAlpha" operator="out"/><feColorMatrix values="0 0 0 0 0 0 0 0 0 0 0 0 0 0 0 0 0 0 0.12 0"/><feBlend in2="BackgroundImageFix" result="effect1_dropShadow_0_1"/><feBlend in="SourceGraphic" in2="effect1_dropShadow_0_1" result="shape"/></filter></defs></svg><svg version="1.0" viewBox="0 0 131 131" id="safari-pinned-tab" xmlns="http://www.w3.org/2000/svg"><path d="M80.2 14.6c-4 2.8-2.3 8.4 2.6 8.4 1.6 0 2.1.4 1.6 1.2-.6 1-.5 1 .7.1 1.9-1.6 5.9-1.3 5.9.5 0 .8-.5 1-1.2.6-1-.6-1-.4-.2.7.7.8 1.2 4.3 1.3 7.9 0 3.6.2 13.7.4 22.5.2 10.1-.1 16.5-.7 17.4-.8 1.1-.8 1.3 0 .8 1.3-.7 1.4 13.6.1 14.9-.4.4-.7 0-.7-.9s-.4-1.7-1-1.7c-.5 0-1.2-1.1-1.6-2.5-.3-1.4-1-2.5-1.4-2.5-.9 0-13-17.6-13-18.9 0-.5-.4-1.1-.8-1.3C71.1 61.4 52 33.1 52 31.9c0-.5-.5-.9-1.1-.9-.5 0-.8-.4-.5-.9.4-.5.2-1.1-.2-1.3C49 28.4 41 17.3 41 16.1c0-1-2.4-2.1-4.9-2.1-3.8 0-5.3 3.3-4.9 11.3.2 4.3-.1 7.3-.6 7-.5-.4-.6 0-.1.7 1.1 1.7 1.3 17 .2 17.7-.4.2-.4 1 0 1.6.4.7.8 2.7 1 4.5.2 2.4-.1 3.1-1 2.6-.9-.6-.9-.4-.1.7.7.9 1.2 7.4 1.3 17.4.2 30 .7 27.5-4.9 27.5-5.3 0-9 2.2-9 5.4 0 4.1 1.6 4.6 15.9 4.6 16.6 0 17.8-.3 18.7-4.3.8-3.8-1.4-5.7-6.7-5.7-4.1 0-5.2-1.7-3.8-5.7.5-1.4.4-2.3-.4-2.6-.9-.3-.9-.7 0-1.9.7-.8 1-1.8.6-2.2-1-1-1.1-8.8-.1-10.8.4-.9.4-1.9 0-2.2-1.4-.8-1.2-42 .1-42.8.9-.6.9-.8 0-.8-.7 0-1.3-.8-1.3-1.7 0-1.9 7.9 8.4 8 10.3 0 .7.7 1.5 1.6 1.8.9.4 1.4 1.3 1 2.2-.3.8-.2 1.3.3.9.5-.3 2 1.2 3.2 3.2 1.3 2.1 2.9 4.4 3.7 5.2.7.7 1 2.1.7 2.9-.3.9-.3 1.3.1 1 .7-.8 3.4 1.6 3.4 3 0 .6.5 1.2 1 1.4.6.2 1.2 1.3 1.3 2.5 0 1.2.5 2.1 1 2 .5-.1 1.4.7 2 1.8.7 1.1 1.7 2.3 2.2 2.7.6.5.6.8.1.8-.6 0-.2.6.9 1.3 1.1.9 1.5 1.9 1 2.7-.5.9-.4 1.1.4.6.6-.4 1.4 0 1.8 1.1.4 1 .9 2 1.3 2.3 2.1 1.6 7 10.2 6.4 11.2-.4.6-.3.8.3.5 1.1-.7 4.9 4.1 4.5 5.5-.1.5.3.8.8.8.6 0 1 .4 1 .9 0 .6-.9.8-2 .6-1.1-.2-2 .2-2 .8 0 .8-.3.8-.9-.2-.6-.9-1.1-1-1.5-.2-.4.6-1.1.9-1.6.6-.4-.3-1.1.2-1.4 1.1-.3.8-1 1.3-1.5.9-1.2-.7.5 5.5 1.8 6.8.6.6 4.1 1 7.8 1s7.4.5 8.2 1.1c1.1.8 1.3.8.7-.2-.6-.9.8-1.2 5.8-1 5.6.2 7-.1 8.7-1.9 4.1-4.1.3-9.3-6.4-8.7-1.5.2-2.5-.1-2.2-.6.3-.6 0-.7-.8-.4-1 .3-1.4-.4-1.4-3 0-2.3.4-3.3 1.1-2.9.6.4.6 0-.1-.8-.8-1-1.2-5.7-1.3-13.5 0-6.5-.2-15.4-.3-19.7-.1-4.4.1-8.1.5-8.4.5-.2.3-1.3-.2-2.4-.8-1.4-.7-1.9.2-1.9 1 0 1-.2-.1-.9-.9-.6-1-1.1-.2-1.5.6-.4.8-1.3.4-1.9-.4-.7-.8-4.4-.9-8.4-.2-6.7-.1-7.1 1.8-6.8 1.2.3 1.7.1 1.4-.3-.4-.4-1.3-.7-1.9-.7-.6 0-1.3-1.6-1.4-3.5-.2-2.6 0-3.1.7-2 .6 1 1 1.1 1 .2 0-.7 1.4-1.2 3.6-1.2 2.5 0 3.3.3 2.8 1.2-.4.7.7-.1 2.4-1.8 3.4-3.2 3.9-6.7 1.1-8.5-.8-.5-7.5-.9-14.9-.9-10.7 0-14 .3-15.8 1.6z"/><path d="M42.6 39.7c-.6 1.4-.5 1.5.5.6.7-.7 1-1.5.7-1.8-.3-.3-.9.2-1.2 1.2zM43.5 42c-1.6.7-1.7.9-.3.9.9.1 2-.4 2.3-.9.7-1.1.7-1.1-2 0zM88.6 84.3c.3 1 .9 1.5 1.2 1.2.3-.3 0-1.1-.7-1.8-1-.9-1.1-.8-.5.6zM103 98.4c0 .2.8 1 1.8 1.7 1.5 1.3 1.6 1.2.3-.4s-2.1-2.1-2.1-1.3zM85.1 100.6c0 1.1.3 1.4.6.6.3-.7.2-1.6-.1-1.9-.3-.4-.6.2-.5 1.3zM45.5 101.1c-.4.6-.5 1.2-.2 1.5.2.3.7-.2 1-1.1.7-1.7.1-2-.8-.4zM27.6 102.2c.3.5 1 .6 1.5.3 1.3-.9 1.1-1.2-.6-1.2-.8 0-1.2.4-.9.9z"/></svg><svg fill="none" viewBox="0 0 122 118" id="vector-hero" xmlns="http://www.w3.org/2000/svg"><path fill-rule="evenodd" clip-rule="evenodd" d="m22.41 82.396.13.074.072.132.007-.004.023-.013.088-.047.341-.18a78.432 78.432 0 0 1 5.309-2.524c1.57-.671 3.262-1.322 4.815-1.765 1.558-.444 2.953-.673 3.937-.52l.047-.296c-1.053-.164-2.503.082-4.067.528-1.57.447-3.275 1.104-4.85 1.778a78.806 78.806 0 0 0-5.33 2.534l-.02.01.151-.283a71.27 71.27 0 0 0 .974-1.9c.777-1.573 1.743-3.67 2.498-5.767.754-2.093 1.306-4.204 1.237-5.797-.034-.797-.224-1.485-.643-1.973-.424-.493-1.062-.759-1.937-.75l.003.3c.81-.008 1.353.235 1.706.646.357.416.539 1.026.572 1.79.065 1.53-.468 3.594-1.22 5.682-.75 2.082-1.71 4.169-2.485 5.736a71.458 71.458 0 0 1-1.332 2.562l-.02.035-.006.012Zm.13.074.072.132-.456.246.254-.452.13.074Z" fill="#fff"/><path fill-rule="evenodd" clip-rule="evenodd" d="M60.803 46.112C47.92 53.056 36.422 62.813 29.471 74.064l.255.158c6.916-11.195 18.37-20.92 31.22-27.846C73.796 39.45 88.03 35.33 100.5 35.33v-.3c-12.53 0-26.813 4.138-39.697 11.082Z" fill="#fff"/></svg></svg>