<svg width="120" height="94" fill="none" xmlns="http://www.w3.org/2000/svg"><path fill="#F5F5F5" d="M0 0h120v94H0z"/><g clip-path="url(#clip0_0_1)"><path fill="#fff" d="M-524-1304h1980v4400H-524z"/><path d="M-534-1202h1990v4298H-534v-4298z" fill="#11071F"/><g filter="url(#filter0_d_0_1)"><rect x="-59" y="-52.962" width="570" height="192.676" rx="15" fill="#2C1250"/></g><path d="M95.24 68.176H75.614c-.502 0-.913-.465-.913-1.032 0-.571.411-1.032.913-1.032h18.713V15.854H77.573c-.505 0-.913-.46-.913-1.031s.408-1.032.913-1.032H95.24c.505 0 .912.46.912 1.031v52.322c0 .567-.407 1.032-.912 1.032z" fill="#fff"/><path d="M86.527 68.176c-.454 0-.825-.465-.825-1.032V14.822c0-.57.371-1.031.825-1.031.456 0 .825.46.825 1.031v52.322c0 .567-.369 1.032-.825 1.032zM76.078 58.8c-.225 0-.444-.123-.6-.33-.312-.42-.3-1.087.028-1.49a.803.803 0 01.317-.238c1.306-.596 2.186-2.188 2.186-3.965 0-1.651-.756-3.155-1.926-3.828a.823.823 0 01-.252-.21c-.328-.404-.34-1.066-.027-1.487.18-.249.452-.368.715-.319.107.018.21.067.304.137 1.72 1.03 2.829 3.26 2.829 5.707 0 2.65-1.301 5.027-3.243 5.928a.675.675 0 01-.331.094zM34.562 2.105c-2.033 0-3.686 1.87-3.686 4.17v10.238l2.301 59.36c.088 2.235 1.705 3.988 3.683 3.988h27.831c1.979 0 3.595-1.753 3.683-3.988l2.301-59.405V6.276c0-2.301-1.653-4.171-3.686-4.171H34.562zm30.13 79.823H36.86c-2.958 0-5.375-2.621-5.506-5.966L29.05 16.557V6.276c0-3.441 2.471-6.238 5.512-6.238h32.427c3.04 0 5.512 2.797 5.512 6.238v10.236l-2.304 59.45c-.128 3.345-2.547 5.966-5.506 5.966z" fill="#fff"/><path d="M63.893 17.54H29.958a.92.92 0 01-.908-.937c0-.516.405-.937.908-.937h33.935c.5 0 .908.421.908.937 0 .52-.408.938-.908.938zm-24.14 7.022c-1.254 0-2.276 1.127-2.276 2.518v11.553c0 1.39 1.022 2.518 2.276 2.518h21.495c1.254 0 2.277-1.128 2.277-2.518V27.08c0-1.39-1.023-2.518-2.277-2.518H39.753zM61.248 43.17H39.753c-2.261 0-4.103-2.033-4.103-4.538V27.08c0-2.505 1.842-4.538 4.103-4.538h21.495c2.262 0 4.103 2.033 4.103 4.538v11.553c0 2.505-1.841 4.538-4.103 4.538zM45.706 53.798h-5.81a.955.955 0 01-.946-.964V49.76c0-.533.426-.963.945-.963.523 0 .945.43.945.963v2.11h4.866c.523 0 .945.431.945.965a.953.953 0 01-.945.963zm15.401 0h-5.811a.953.953 0 01-.945-.964V49.76c0-.533.422-.963.945-.963.52 0 .945.43.945.963v2.11h4.866c.523 0 .945.431.945.965a.953.953 0 01-.945.963zM45.706 64.426h-5.81c-.52 0-.946-.485-.946-1.085v-3.457c0-.6.426-1.085.945-1.085.523 0 .945.485.945 1.085v2.372h4.866c.523 0 .945.488.945 1.085 0 .6-.422 1.085-.945 1.085zm15.401 0h-5.811c-.523 0-.945-.485-.945-1.085v-3.457c0-.6.422-1.085.945-1.085.52 0 .945.485.945 1.085v2.372h4.866c.523 0 .945.488.945 1.085 0 .6-.422 1.085-.945 1.085zM45.706 74.427h-5.81a.957.957 0 01-.946-.964V70.39c0-.533.426-.964.945-.964.523 0 .945.43.945.964v2.11h4.866c.523 0 .945.43.945.964 0 .53-.422.964-.945.964zm15.401 0h-5.811a.955.955 0 01-.945-.964V70.39c0-.533.422-.964.945-.964.52 0 .945.43.945.964v2.11h4.866c.523 0 .945.43.945.964 0 .53-.422.964-.945.964zM25.87 69.426c-.521 0-.955-.43-.978-.983l-1.891-45.45c-.023-.57.394-1.051.936-1.075.551-.024.994.416 1.017.983L26.85 68.35c.023.57-.394 1.052-.936 1.076h-.042z" fill="#fff"/><ellipse cx="55.669" cy="21.038" rx="55.669" ry="21.038" transform="matrix(-.9985 .05478 -.06553 -.99785 113.929 87.901)" fill="url(#paint0_linear_0_1)"/><ellipse cx="3.99" cy="61.952" rx="2.417" ry="2.209" fill="#D9D9D9"/><ellipse cx="117.571" cy="39.549" rx="2.417" ry="2.209" fill="#D9D9D9"/><ellipse cx="19.871" cy="4.209" rx="2.417" ry="2.209" fill="#693B93"/><ellipse cx="93.404" cy="84.986" rx="2.417" ry="2.209" fill="#693B93"/></g><defs><linearGradient id="paint0_linear_0_1" x1="55.669" y1="0" x2="55.669" y2="42.076" gradientUnits="userSpaceOnUse"><stop stop-color="#2C1250"/><stop offset=".198" stop-color="#2C1250"/><stop offset=".901" stop-color="#2C1250" stop-opacity="0"/></linearGradient><clipPath id="clip0_0_1"><path fill="#fff" transform="translate(-524 -1304)" d="M0 0h1980v4400H0z"/></clipPath><filter id="filter0_d_0_1" x="-81" y="-71.962" width="622" height="244.676" filterUnits="userSpaceOnUse" color-interpolation-filters="sRGB"><feFlood flood-opacity="0" result="BackgroundImageFix"/><feColorMatrix in="SourceAlpha" values="0 0 0 0 0 0 0 0 0 0 0 0 0 0 0 0 0 0 127 0" result="hardAlpha"/><feOffset dx="4" dy="7"/><feGaussianBlur stdDeviation="13"/><feComposite in2="hardAlpha" operator="out"/><feColorMatrix values="0 0 0 0 0 0 0 0 0 0 0 0 0 0 0 0 0 0 0.12 0"/><feBlend in2="BackgroundImageFix" result="effect1_dropShadow_0_1"/><feBlend in="SourceGraphic" in2="effect1_dropShadow_0_1" result="shape"/></filter></defs></svg>