<svg version="1.0" xmlns="http://www.w3.org/2000/svg" width="174.667" height="174.667" viewBox="0 0 131 131"><path d="M80.2 14.6c-4 2.8-2.3 8.4 2.6 8.4 1.6 0 2.1.4 1.6 1.2-.6 1-.5 1 .7.1 1.9-1.6 5.9-1.3 5.9.5 0 .8-.5 1-1.2.6-1-.6-1-.4-.2.7.7.8 1.2 4.3 1.3 7.9 0 3.6.2 13.7.4 22.5.2 10.1-.1 16.5-.7 17.4-.8 1.1-.8 1.3 0 .8 1.3-.7 1.4 13.6.1 14.9-.4.4-.7 0-.7-.9s-.4-1.7-1-1.7c-.5 0-1.2-1.1-1.6-2.5-.3-1.4-1-2.5-1.4-2.5-.9 0-13-17.6-13-18.9 0-.5-.4-1.1-.8-1.3C71.1 61.4 52 33.1 52 31.9c0-.5-.5-.9-1.1-.9-.5 0-.8-.4-.5-.9.4-.5.2-1.1-.2-1.3C49 28.4 41 17.3 41 16.1c0-1-2.4-2.1-4.9-2.1-3.8 0-5.3 3.3-4.9 11.3.2 4.3-.1 7.3-.6 7-.5-.4-.6 0-.1.7 1.1 1.7 1.3 17 .2 17.7-.4.2-.4 1 0 1.6.4.7.8 2.7 1 4.5.2 2.4-.1 3.1-1 2.6-.9-.6-.9-.4-.1.7.7.9 1.2 7.4 1.3 17.4.2 30 .7 27.5-4.9 27.5-5.3 0-9 2.2-9 5.4 0 4.1 1.6 4.6 15.9 4.6 16.6 0 17.8-.3 18.7-4.3.8-3.8-1.4-5.7-6.7-5.7-4.1 0-5.2-1.7-3.8-5.7.5-1.4.4-2.3-.4-2.6-.9-.3-.9-.7 0-1.9.7-.8 1-1.8.6-2.2-1-1-1.1-8.8-.1-10.8.4-.9.4-1.9 0-2.2-1.4-.8-1.2-42 .1-42.8.9-.6.9-.8 0-.8-.7 0-1.3-.8-1.3-1.7 0-1.9 7.9 8.4 8 10.3 0 .7.7 1.5 1.6 1.8.9.4 1.4 1.3 1 2.2-.3.8-.2 1.3.3.9.5-.3 2 1.2 3.2 3.2 1.3 2.1 2.9 4.4 3.7 5.2.7.7 1 2.1.7 2.9-.3.9-.3 1.3.1 1 .7-.8 3.4 1.6 3.4 3 0 .6.5 1.2 1 1.4.6.2 1.2 1.3 1.3 2.5 0 1.2.5 2.1 1 2 .5-.1 1.4.7 2 1.8.7 1.1 1.7 2.3 2.2 2.7.6.5.6.8.1.8-.6 0-.2.6.9 1.3 1.1.9 1.5 1.9 1 2.7-.5.9-.4 1.1.4.6.6-.4 1.4 0 1.8 1.1.4 1 .9 2 1.3 2.3 2.1 1.6 7 10.2 6.4 11.2-.4.6-.3.8.3.5 1.1-.7 4.9 4.1 4.5 5.5-.1.5.3.8.8.8.6 0 1 .4 1 .9 0 .6-.9.8-2 .6-1.1-.2-2 .2-2 .8 0 .8-.3.8-.9-.2-.6-.9-1.1-1-1.5-.2-.4.6-1.1.9-1.6.6-.4-.3-1.1.2-1.4 1.1-.3.8-1 1.3-1.5.9-1.2-.7.5 5.5 1.8 6.8.6.6 4.1 1 7.8 1s7.4.5 8.2 1.1c1.1.8 1.3.8.7-.2-.6-.9.8-1.2 5.8-1 5.6.2 7-.1 8.7-1.9 4.1-4.1.3-9.3-6.4-8.7-1.5.2-2.5-.1-2.2-.6.3-.6 0-.7-.8-.4-1 .3-1.4-.4-1.4-3 0-2.3.4-3.3 1.1-2.9.6.4.6 0-.1-.8-.8-1-1.2-5.7-1.3-13.5 0-6.5-.2-15.4-.3-19.7-.1-4.4.1-8.1.5-8.4.5-.2.3-1.3-.2-2.4-.8-1.4-.7-1.9.2-1.9 1 0 1-.2-.1-.9-.9-.6-1-1.1-.2-1.5.6-.4.8-1.3.4-1.9-.4-.7-.8-4.4-.9-8.4-.2-6.7-.1-7.1 1.8-6.8 1.2.3 1.7.1 1.4-.3-.4-.4-1.3-.7-1.9-.7-.6 0-1.3-1.6-1.4-3.5-.2-2.6 0-3.1.7-2 .6 1 1 1.1 1 .2 0-.7 1.4-1.2 3.6-1.2 2.5 0 3.3.3 2.8 1.2-.4.7.7-.1 2.4-1.8 3.4-3.2 3.9-6.7 1.1-8.5-.8-.5-7.5-.9-14.9-.9-10.7 0-14 .3-15.8 1.6z"/><path d="M42.6 39.7c-.6 1.4-.5 1.5.5.6.7-.7 1-1.5.7-1.8-.3-.3-.9.2-1.2 1.2zm.9 2.3c-1.6.7-1.7.9-.3.9.9.1 2-.4 2.3-.9.7-1.1.7-1.1-2 0zm45.1 42.3c.3 1 .9 1.5 1.2 1.2.3-.3 0-1.1-.7-1.8-1-.9-1.1-.8-.5.6zM103 98.4c0 .2.8 1 1.8 1.7 1.5 1.3 1.6 1.2.3-.4s-2.1-2.1-2.1-1.3zm-17.9 2.2c0 1.1.3 1.4.6.6.3-.7.2-1.6-.1-1.9-.3-.4-.6.2-.5 1.3zm-39.6.5c-.4.6-.5 1.2-.2 1.5.2.3.7-.2 1-1.1.7-1.7.1-2-.8-.4zm-17.9 1.1c.3.5 1 .6 1.5.3 1.3-.9 1.1-1.2-.6-1.2-.8 0-1.2.4-.9.9z"/></svg>